<svg width="20" height="20" viewBox="0 0 20 20" fill="none" xmlns="http://www.w3.org/2000/svg">
<path d="M18.5222 0H1.47778C0.661111 0 0 0.644444 0 1.44444V18.5556C0 19.3556 0.661111 20 1.47778 20H18.5222C19.3333 20 20 19.3556 20 18.5556V1.44444C20 0.644444 19.3333 0 18.5222 0ZM5.93333 17.0444H2.96111V7.5H5.92778V17.0444H5.93333ZM4.45 6.19444C3.5 6.19444 2.72778 5.42222 2.72778 4.47222C2.72778 3.52222 3.49444 2.75 4.45 2.75C5.4 2.75 6.16667 3.52222 6.16667 4.47222C6.16667 5.42222 5.4 6.19444 4.45 6.19444ZM17.0444 17.0444H14.0778V12.4056C14.0778 11.3 14.0611 9.87222 12.5389 9.87222C10.9944 9.87222 10.7611 11.0778 10.7611 12.3222V17.0444H7.8V7.5H10.6444V8.80556H10.6833C11.0778 8.05556 12.0444 7.26667 13.4889 7.26667C16.4944 7.26667 17.05 9.24444 17.05 11.8111V17.0444H17.0444Z" fill="#5C6B7D"/>
</svg>
